PathFileType	4	(X/Y/Z)	s09c0101.trc
DataRate	CameraRate	NumFrames	NumMarkers	Units	OrigDataRate	OrigDataStartFrame	OrigNumFrames
200	200	5	50	mm	200	1250	2000
Frame#	Time	racr			lacr			c7			jug			rlel			rdr			llel			ldr			s2			lic			ric			lasi			rasi			rpsi			lpsi			rgt			lgt			rth1			rth2			rth3			rth4			rlfc			rmfc			rsh1			rsh2			rsh3			rsh4			rlmal			rmmal			rcal			rtoe			rmt5			lth1			lth2			lth4			lth3			llfc			lmfc			llmal			lmmal			lcal			lmt5			lsh1			lsh2			lsh3			lsh4			ltoe			SBIKE			LBIKE			RBIKE			
		X1	Y1	Z1	X2	Y2	Z2	X3	Y3	Z3	X4	Y4	Z4	X5	Y5	Z5	X6	Y6	Z6	X7	Y7	Z7	X8	Y8	Z8	X9	Y9	Z9	X10	Y10	Z10	X11	Y11	Z11	X12	Y12	Z12	X13	Y13	Z13	X14	Y14	Z14	X15	Y15	Z15	X16	Y16	Z16	X17	Y17	Z17	X18	Y18	Z18	X19	Y19	Z19	X20	Y20	Z20	X21	Y21	Z21	X22	Y22	Z22	X23	Y23	Z23	X24	Y24	Z24	X25	Y25	Z25	X26	Y26	Z26	X27	Y27	Z27	X28	Y28	Z28	X29	Y29	Z29	X30	Y30	Z30	X31	Y31	Z31	X32	Y32	Z32	X33	Y33	Z33	X34	Y34	Z34	X35	Y35	Z35	X36	Y36	Z36	X37	Y37	Z37	X38	Y38	Z38	X39	Y39	Z39	X40	Y40	Z40	X41	Y41	Z41	X42	Y42	Z42	X43	Y43	Z43	X44	Y44	Z44	X45	Y45	Z45	X46	Y46	Z46	X47	Y47	Z47	X48	Y48	Z48	X49	Y49	Z49	X50	Y50	Z50	
1250	6.2500	548.391694	1262.593724	-122.070186	534.203242	1276.667292	-407.505191	510.773270	1292.327083	-253.058978	487.924094	1154.557578	-265.275909	555.718634	1062.869203	32.113037	700.267537	870.932398	-32.806282	480.293964	1026.338629	-532.722171	677.217300	890.406217	-441.229233	22.087041	1124.622271	-191.466218	131.335396	1136.106967	-363.082003	184.461902	1109.182331	-67.994812	178.610869	1077.441149	-346.572965	220.810920	1059.620500	-99.554996	62.654620	1152.414338	-137.221843	38.670375	1166.569387	-239.970700	154.221282	961.546800	-34.301049	109.124574	1025.833292	-402.288991	229.300468	848.667601	-47.047395	289.025746	785.784192	-61.452411	304.587198	699.117605	-74.124375	314.524713	800.312243	-83.805494	336.195565	611.375806	-110.035654	308.668040	589.506316	-203.752093	302.864609	516.487673	-72.551250	315.337668	428.487703	-87.516393	283.903580	346.711655	-83.837213	337.849180	429.395677	-120.650526	264.522322	247.350993	-82.080676	262.898452	255.729056	-157.507952	186.974381	223.059064	-115.705476	443.856569	161.612641	-129.716009	362.445729	161.126598	-61.668540	245.990545	972.345676	-407.116966	330.815952	967.263204	-399.717946	342.190042	998.220163	-380.578899	406.903539	918.813023	-406.286513	481.750265	851.165634	-390.486172	491.683123	826.457925	-289.512750	208.479450	606.917135	-407.061793	225.949703	603.883026	-336.010805	129.265121	612.879726	-368.462868	245.053540	483.635444	-428.856188	413.837889	784.498527	-412.699777	363.989308	713.226123	-406.095265	283.419832	675.866188	-407.513997	382.845497	693.248766	-378.869715	328.069515	444.691465	-359.012666	-64.362203	853.696463	-237.573736	21.325506	85.050116	-441.785683	21.232086	83.940651	-43.616635	
1251	6.2550	549.623287	1262.803601	-125.738447	533.467486	1276.291137	-411.282696	511.120886	1292.357061	-256.894969	487.846406	1154.620853	-268.696230	557.204583	1064.079318	30.039403	700.545951	871.042534	-33.068621	479.222754	1024.869524	-534.007130	677.183406	890.436624	-441.500082	22.532616	1125.219884	-190.565733	130.895397	1137.187473	-363.173512	186.199254	1109.342157	-68.591143	177.734705	1077.922810	-346.525682	221.666853	1059.621219	-100.791027	63.664197	1153.009693	-136.475009	39.015741	1167.108442	-239.237411	155.342473	961.727947	-33.412520	109.217685	1028.568847	-402.555680	227.856292	848.523062	-46.344423	286.584531	784.683250	-60.587008	300.259804	697.472998	-73.363216	312.214253	798.710802	-83.129679	330.404337	609.199718	-108.868559	303.079153	587.938341	-203.404842	296.447444	514.459395	-71.884203	308.485725	426.624361	-86.825154	276.543049	345.013094	-83.567539	330.449566	426.987066	-120.041538	256.605364	246.073516	-82.071041	255.332349	254.122260	-157.377174	179.340623	222.926786	-116.027772	434.902137	156.691663	-128.918751	352.772645	157.552801	-61.602166	246.732292	977.461199	-406.233976	331.520269	973.193056	-397.883272	342.426134	1004.137813	-377.881504	408.240744	925.857791	-404.121048	484.185137	859.048863	-388.709277	494.439917	834.062749	-287.901558	215.288774	609.511679	-407.276737	234.795297	607.950089	-335.464986	135.219325	613.678615	-368.801217	254.580944	487.670210	-429.006243	417.588304	791.737107	-411.320360	368.873383	719.372965	-405.546530	288.987119	680.761253	-407.122638	388.144844	699.659549	-378.369619	338.553171	451.020214	-359.051766	-64.369218	853.712249	-237.584899	21.321694	84.970362	-441.891822	21.234324	83.962072	-43.613955	
1252	6.2600	550.896928	1262.859365	-129.805995	532.738533	1275.805424	-415.029276	511.503334	1292.278880	-260.856914	487.910231	1154.547584	-272.089764	558.567883	1065.558386	28.166596	700.816768	871.133816	-33.419873	478.410539	1023.407256	-535.660300	677.209489	890.458485	-441.925209	22.872517	1126.127724	-189.765677	130.616744	1138.244695	-363.495578	187.749457	1109.677448	-69.347018	177.048364	1078.426746	-346.510684	222.647914	1060.045710	-101.932317	64.653403	1153.765672	-136.168962	37.181171	1168.849502	-238.206945	156.227336	962.205222	-32.654166	109.833070	1031.536475	-403.181989	226.332362	848.735102	-45.543675	284.119417	783.966273	-59.632816	296.389609	696.474143	-72.356534	309.948620	797.534694	-82.249614	325.152925	607.356896	-107.694621	298.331011	586.906927	-202.872924	290.316948	513.304988	-71.263824	301.737184	425.162297	-86.316411	269.115379	343.841383	-83.269922	323.913999	425.470515	-119.293853	248.452866	245.304743	-82.157810	247.873723	253.086755	-157.299252	171.257927	223.764709	-116.242012	424.166209	150.956004	-129.734156	343.007582	154.581217	-61.507872	247.471141	982.612809	-405.497058	332.135028	978.904932	-396.028302	342.457375	1009.607105	-375.427148	409.337349	932.795410	-403.170075	485.741555	865.627168	-388.311336	496.954246	841.134924	-286.287366	221.870188	611.390951	-407.369072	241.098332	609.936932	-335.328427	141.096351	613.515464	-369.079936	264.199752	491.110896	-429.246025	420.725158	798.099328	-410.164246	373.378440	725.073857	-404.919275	294.288928	684.652249	-406.782025	393.139191	705.341516	-378.235891	349.189182	457.013367	-359.072765	-64.409225	853.724988	-237.593572	21.328117	85.086823	-441.811754	21.220592	83.972512	-43.616222	
1253	6.2650	552.044492	1262.967937	-133.836168	532.133992	1275.101609	-418.449515	511.875416	1292.162148	-264.683447	488.207412	1154.386108	-275.212642	560.288981	1067.240374	26.804638	701.057056	871.215918	-33.875839	477.832613	1022.133938	-537.781983	677.334275	890.459118	-442.589936	23.130615	1126.841332	-189.465551	130.331345	1139.373129	-363.917556	189.195603	1110.235588	-70.067022	176.439458	1079.025753	-346.506658	223.119404	1060.451125	-103.458866	65.596236	1154.624970	-136.084972	37.702444	1169.774456	-238.070308	156.824839	963.048592	-32.077340	110.637831	1034.440190	-403.966724	224.855134	849.108257	-44.536555	281.794845	783.469813	-58.803361	292.739950	695.834739	-71.280891	307.820140	796.678568	-81.289671	320.479824	606.066866	-106.553321	294.362549	586.348317	-202.358577	284.780731	512.502946	-70.915208	295.318603	424.212172	-85.697299	261.675278	343.376699	-83.020361	317.679762	424.213892	-118.633821	240.248000	245.271533	-82.015154	242.688234	251.796809	-156.868249	162.958810	224.935888	-116.507930	413.950098	146.612185	-129.523256	332.848225	152.158735	-61.436901	248.174158	987.334667	-404.639329	332.746160	983.901622	-394.437449	342.568943	1014.646669	-373.207878	410.050124	938.608932	-400.934312	488.798788	872.782407	-386.116382	498.959586	847.938869	-285.002159	228.336455	612.497855	-407.384310	248.153375	612.074663	-334.696195	146.980699	612.333231	-369.470119	274.076296	493.806923	-429.454789	423.346190	803.588308	-409.167160	377.533112	729.605716	-404.335845	299.256346	687.617859	-406.457871	397.802592	710.008899	-377.885714	360.022824	462.507290	-359.121006	-64.462310	853.716873	-237.622787	21.301285	85.087483	-441.809587	21.219721	83.964126	-43.628322	
1254	6.2700	553.170978	1263.141619	-137.905036	531.358814	1274.262150	-421.943242	512.109783	1291.944158	-268.664375	488.398750	1154.115955	-278.414182	561.370600	1068.695043	24.878105	701.312223	871.208333	-34.376189	477.653140	1020.875601	-540.381059	677.569143	890.474286	-443.403746	23.661897	1127.885730	-189.852579	130.287460	1140.402991	-364.555300	190.464441	1111.043471	-70.916334	175.933112	1079.615958	-346.509280	223.305050	1061.085580	-104.782977	66.347890	1155.838668	-136.108516	38.459234	1170.798498	-238.257639	156.992350	964.333839	-31.632363	111.563891	1037.362919	-404.765957	223.335410	849.561941	-43.948071	279.592427	783.208586	-57.387844	289.419538	695.467084	-70.256457	305.927816	796.191282	-80.081676	316.460816	605.352708	-105.163007	291.298379	586.101177	-201.870979	279.436854	512.178231	-70.642479	289.280313	423.822598	-84.829943	254.371670	343.347740	-82.804389	311.803786	423.504388	-117.988735	231.959121	245.684397	-81.904425	234.703601	252.131387	-156.815454	156.090723	226.186831	-117.254301	403.646514	143.155534	-129.247056	322.494652	150.419234	-61.336498	248.794801	991.614228	-403.614792	333.085536	989.075755	-393.976267	342.809109	1019.189883	-371.302276	410.720285	944.013423	-400.160677	490.167308	878.507345	-384.905815	500.959546	853.753121	-283.966275	234.983664	613.096052	-407.603517	253.318277	612.702421	-334.444551	152.910943	610.209995	-369.842027	283.812190	495.903038	-429.754491	425.679198	808.195941	-408.138781	381.422795	733.059585	-403.715398	304.142067	689.366670	-406.042550	402.098531	713.862674	-377.416816	370.578896	467.415528	-359.241588	-64.497491	853.721232	-237.671280	21.280147	85.077082	-441.814685	21.197258	83.986939	-43.650989	
